<svg xmlns="http://www.w3.org/2000/svg" width="253.188" height="88.794" viewBox="0 0 253.188 88.794">
  <g id="Group_30800" data-name="Group 30800" transform="translate(-0.117 -6.573)">
    <path id="Path_24676" data-name="Path 24676" d="M132.868,63.626H108.55V21.4h24.318v7.336H117.5v9.271h14.3v7.336H117.5V56.233h15.365Zm8.838,0V21.4h8.953V56.233h17.127v7.394Zm33.445,0V21.4H184.1V63.626Zm35.871,0h-8.953V28.853H190.6V21.4h31.885v7.451H211.022Zm42.283,0H228.987V21.4H253.3v7.336H237.94v9.271h14.3v7.336h-14.3V56.233H253.3Z" fill="#fff"/>
    <path id="Path_24677" data-name="Path 24677" d="M108.753,95.16V80.06h1.756V93.57h6.662V95.16Zm19.407,0h-8.417V80.06h8.417v1.56H121.5v4.865h6.26v1.549H121.5V93.59h6.662Zm12.849,0-1.88-4.8h-6.052l-1.859,4.8h-1.777L135.411,80h1.477l5.939,15.162Zm-2.427-6.383L136.826,84.1q-.341-.888-.7-2.179a19.757,19.757,0,0,1-.651,2.179L133.7,88.777Zm8.077.1v6.28H144.9V80.06h4.142a6.492,6.492,0,0,1,4.1,1.064,3.851,3.851,0,0,1,1.332,3.2,4.01,4.01,0,0,1-3.036,4.049l4.1,6.786h-2.076l-3.656-6.28Zm0-1.508h2.406a4.176,4.176,0,0,0,2.727-.733,2.766,2.766,0,0,0,.868-2.221,2.513,2.513,0,0,0-.889-2.159,4.757,4.757,0,0,0-2.83-.661h-2.282Zm23.115,7.788h-2l-8.252-12.673h-.083q.165,2.231.165,4.09V95.16h-1.621V80.06h1.983l8.232,12.621h.082q-.02-.279-.093-1.787t-.051-2.169V80.06h1.642Zm4.152,0V80.06h1.756v15.1Zm17.7,0h-2l-8.252-12.673h-.083q.167,2.231.166,4.09V95.16h-1.622V80.06h1.983l8.232,12.621h.083q-.021-.279-.093-1.787t-.052-2.169V80.06h1.642Zm10.794-7.912h5.133v7.344a16.487,16.487,0,0,1-2.438.578,18.554,18.554,0,0,1-2.871.2,6.969,6.969,0,0,1-5.34-2.035A8.058,8.058,0,0,1,195,87.61a8.653,8.653,0,0,1,.94-4.121,6.39,6.39,0,0,1,2.727-2.706,8.776,8.776,0,0,1,4.162-.94,11.376,11.376,0,0,1,4.5.888l-.682,1.549a10.058,10.058,0,0,0-3.935-.868,5.634,5.634,0,0,0-4.307,1.642,6.373,6.373,0,0,0-1.55,4.555,6.526,6.526,0,0,0,1.488,4.637,5.763,5.763,0,0,0,4.389,1.58,13.026,13.026,0,0,0,3.068-.361V88.818h-3.377Zm23.755,7.912-1.88-4.8h-6.052l-1.859,4.8H214.61L220.58,80h1.477L228,95.16Zm-2.427-6.383L221.995,84.1q-.34-.888-.7-2.179a19.757,19.757,0,0,1-.651,2.179l-1.776,4.679Zm15.9-4.317a4.24,4.24,0,0,1-1.57,3.532,7.089,7.089,0,0,1-4.473,1.229h-1.776V95.16h-1.756V80.06h3.915Q239.646,80.06,239.647,84.46Zm-7.819,3.254h1.58a5.876,5.876,0,0,0,3.378-.754,2.78,2.78,0,0,0,1.043-2.417,2.605,2.605,0,0,0-.981-2.231,5.13,5.13,0,0,0-3.058-.733h-1.962Zm20.564-3.254a4.237,4.237,0,0,1-1.57,3.532,7.086,7.086,0,0,1-4.472,1.229h-1.777V95.16h-1.756V80.06h3.915Q252.392,80.06,252.392,84.46Zm-7.819,3.254h1.581a5.87,5.87,0,0,0,3.377-.754,2.78,2.78,0,0,0,1.043-2.417,2.605,2.605,0,0,0-.981-2.231,5.125,5.125,0,0,0-3.057-.733h-1.963Z" fill="#fff"/>
    <path id="Path_24678" data-name="Path 24678" d="M51.577,93.55l-1.531-1.531a1.292,1.292,0,0,1-.193-.159L4.184,46.191a1.286,1.286,0,0,1-.312-.5L.731,42.545a1.292,1.292,0,0,1,0-1.827L34.5,6.951a1.292,1.292,0,0,1,1.827,0l9.4,9.4a1.292,1.292,0,0,1,0,1.827L22.176,41.728l30.3,30.3L76.391,48.107a1.292,1.292,0,0,1,1.827,0l9.4,9.4a1.292,1.292,0,0,1,0,1.827L53.4,93.55a1.292,1.292,0,0,1-1.826,0Z" fill="#b3f151"/>
    <path id="Path_24679" data-name="Path 24679" d="M51.576,93.551l-1.217-1.217a.793.793,0,0,1-.155-.121L.35,42.358a.794.794,0,0,1,0-1.123l22.023.686,30.1,30.1L76.391,48.108a1.292,1.292,0,0,1,1.827,0l9.4,9.4a1.292,1.292,0,0,1,0,1.827L53.4,93.552a1.292,1.292,0,0,1-1.827,0Z" fill="#fff"/>
    <path id="Path_24680" data-name="Path 24680" d="M52.96,27.928a1.292,1.292,0,0,1,1.811,0L66.34,39.3a1.292,1.292,0,0,1-.9,2.212H42.295a1.292,1.292,0,0,1-.9-2.214Z" fill="#b3f151"/>
  </g>
</svg>
