<svg width="219" height="84" viewBox="0 0 219 84" fill="none" xmlns="http://www.w3.org/2000/svg">
<path d="M109.672 52H89.5818V17.1158H109.672V23.1764H96.9785V30.8357H108.79V36.8962H96.9785V45.8917H109.672V52ZM116.974 52V17.1158H124.371V45.8917H138.52V52H116.974ZM144.604 52V17.1158H152.001V52H144.604ZM174.239 52H166.842V23.2718H157.37V17.1158H183.712V23.2718H174.239V52ZM209.171 52H189.08V17.1158H209.171V23.1764H196.477V30.8357H208.288V36.8962H196.477V45.8917H209.171V52Z" fill="white"/>
<path d="M89.7483 78.0975V65.6224H91.1989V76.7835H96.7026V78.0975H89.7483ZM105.782 78.0975H98.8273V65.6224H105.782V66.9109H100.278V70.9299H105.449V72.2098H100.278V76.8005H105.782V78.0975ZM116.397 78.0975L114.844 74.1297H109.843L108.307 78.0975H106.84L111.772 65.5712H112.992L117.898 78.0975H116.397ZM114.391 72.8242L112.941 68.9588C112.753 68.4696 112.56 67.8694 112.361 67.1583C112.235 67.7044 112.056 68.3046 111.823 68.9588L110.355 72.8242H114.391ZM121.064 72.9095V78.0975H119.614V65.6224H123.035C124.565 65.6224 125.695 65.9154 126.423 66.5013C127.157 67.0872 127.524 67.969 127.524 69.1465C127.524 70.7962 126.687 71.9112 125.015 72.4914L128.402 78.0975H126.687L123.667 72.9095H121.064ZM121.064 71.6637H123.052C124.076 71.6637 124.827 71.4618 125.305 71.0579C125.783 70.6483 126.022 70.0368 126.022 69.2233C126.022 68.3985 125.777 67.804 125.288 67.4399C124.804 67.0759 124.025 66.8938 122.95 66.8938H121.064V71.6637ZM140.161 78.0975H138.505L131.688 67.6277H131.619C131.71 68.8564 131.756 69.9827 131.756 71.0067V78.0975H130.416V65.6224H132.054L138.855 76.0496H138.923C138.912 75.896 138.887 75.404 138.847 74.5734C138.807 73.7372 138.793 73.1399 138.804 72.7815V65.6224H140.161V78.0975ZM143.591 78.0975V65.6224H145.042V78.0975H143.591ZM158.216 78.0975H156.561L149.743 67.6277H149.675C149.766 68.8564 149.811 69.9827 149.811 71.0067V78.0975H148.472V65.6224H150.11L156.911 76.0496H156.979C156.968 75.896 156.942 75.404 156.902 74.5734C156.863 73.7372 156.848 73.1399 156.86 72.7815V65.6224H158.216V78.0975ZM167.133 71.5613H171.374V77.6282C170.714 77.8387 170.043 77.998 169.36 78.1061C168.678 78.2142 167.887 78.2682 166.988 78.2682C165.1 78.2682 163.629 77.7079 162.577 76.5872C161.524 75.4609 160.998 73.8851 160.998 71.86C160.998 70.563 161.257 69.4281 161.775 68.4553C162.298 67.4769 163.049 66.7317 164.027 66.2197C165.006 65.7021 166.152 65.4432 167.466 65.4432C168.797 65.4432 170.037 65.6878 171.186 66.1771L170.623 67.457C169.497 66.9791 168.413 66.7402 167.372 66.7402C165.853 66.7402 164.667 67.1925 163.814 68.097C162.961 69.0014 162.534 70.2558 162.534 71.86C162.534 73.5438 162.944 74.8209 163.763 75.6913C164.588 76.5616 165.796 76.9968 167.389 76.9968C168.254 76.9968 169.099 76.8972 169.924 76.6981V72.8583H167.133V71.5613ZM186.759 78.0975L185.206 74.1297H180.206L178.67 78.0975H177.202L182.134 65.5712H183.354L188.261 78.0975H186.759ZM184.754 72.8242L183.303 68.9588C183.115 68.4696 182.922 67.8694 182.723 67.1583C182.598 67.7044 182.419 68.3046 182.185 68.9588L180.718 72.8242H184.754ZM197.886 69.2574C197.886 70.5203 197.454 71.4931 196.589 72.1757C195.73 72.8526 194.498 73.1911 192.894 73.1911H191.427V78.0975H189.976V65.6224H193.21C196.327 65.6224 197.886 66.8341 197.886 69.2574ZM191.427 71.9453H192.732C194.018 71.9453 194.948 71.7377 195.522 71.3224C196.097 70.9071 196.384 70.2416 196.384 69.3257C196.384 68.5009 196.114 67.8865 195.574 67.4826C195.033 67.0787 194.191 66.8768 193.048 66.8768H191.427V71.9453ZM208.416 69.2574C208.416 70.5203 207.983 71.4931 207.119 72.1757C206.26 72.8526 205.028 73.1911 203.424 73.1911H201.956V78.0975H200.506V65.6224H203.739C206.857 65.6224 208.416 66.8341 208.416 69.2574ZM201.956 71.9453H203.262C204.547 71.9453 205.477 71.7377 206.052 71.3224C206.626 70.9071 206.914 70.2416 206.914 69.3257C206.914 68.5009 206.644 67.8865 206.103 67.4826C205.563 67.0787 204.721 66.8768 203.577 66.8768H201.956V71.9453Z" fill="white"/>
<path d="M42.5144 76.7684L41.2494 75.5034C41.1921 75.4648 41.1387 75.4207 41.0899 75.3718L3.36053 37.6429C3.2433 37.5263 3.1549 37.3839 3.10238 37.2271L0.507992 34.6308C0.408861 34.5317 0.330226 34.414 0.276576 34.2845C0.222926 34.155 0.195312 34.0162 0.195313 33.876C0.195312 33.7358 0.222926 33.597 0.276576 33.4675C0.330226 33.338 0.408861 33.2203 0.507992 33.1212L28.4044 5.22516C28.5036 5.12602 28.6212 5.04739 28.7507 4.99374C28.8803 4.94009 29.0191 4.91248 29.1592 4.91248C29.2994 4.91248 29.4382 4.94009 29.5677 4.99374C29.6973 5.04739 29.8149 5.12602 29.9141 5.22516L37.6817 12.9921C37.8818 13.1922 37.9942 13.4637 37.9942 13.7467C37.9942 14.0297 37.8818 14.3011 37.6817 14.5013L18.225 33.9558L43.2541 58.9857L63.0144 39.2258C63.1135 39.1267 63.2312 39.048 63.3607 38.9944C63.4902 38.9408 63.629 38.9131 63.7692 38.9131C63.9094 38.9131 64.0482 38.9408 64.1777 38.9944C64.3072 39.048 64.4249 39.1267 64.524 39.2258L72.2909 46.9927C72.491 47.1929 72.6034 47.4643 72.6034 47.7473C72.6034 48.0304 72.491 48.3018 72.2909 48.502L44.0233 76.7684C43.8231 76.9684 43.5518 77.0807 43.2689 77.0807C42.9859 77.0807 42.7146 76.9684 42.5144 76.7684Z" fill="#B3F151"/>
<path d="M42.5129 76.7692L41.5075 75.7638C41.4608 75.7359 41.4178 75.7024 41.3794 75.664L0.191981 34.4766C0.0690517 34.3536 0 34.1868 0 34.0128C0 33.8389 0.0690517 33.6721 0.191981 33.5491L18.3859 34.116L43.2533 58.9864L63.0136 39.2266C63.2138 39.0265 63.4852 38.9141 63.7682 38.9141C64.0512 38.9141 64.3227 39.0265 64.5228 39.2266L72.2897 46.9935C72.3889 47.0926 72.4675 47.2103 72.5211 47.3398C72.5748 47.4693 72.6024 47.6081 72.6024 47.7483C72.6024 47.8884 72.5748 48.0273 72.5211 48.1568C72.4675 48.2863 72.3889 48.404 72.2897 48.5031L44.0225 76.7707C43.9234 76.8698 43.8057 76.9484 43.6762 77.0021C43.5467 77.0557 43.4079 77.0834 43.2677 77.0834C43.1275 77.0834 42.9887 77.0557 42.8592 77.0021C42.7297 76.9484 42.612 76.8698 42.5129 76.7707V76.7692Z" fill="white"/>
<path d="M43.6554 22.5551C43.855 22.359 44.1236 22.2491 44.4034 22.2491C44.6832 22.2491 44.9518 22.359 45.1514 22.5551L54.7091 31.9461C54.8598 32.0947 54.9629 32.2846 55.0054 32.4919C55.0479 32.6992 55.0278 32.9144 54.9477 33.1102C54.8676 33.306 54.7312 33.4737 54.5556 33.5918C54.3801 33.7099 54.1734 33.7732 53.9619 33.7736H34.8441C34.6322 33.7735 34.4252 33.7103 34.2493 33.5921C34.0735 33.4739 33.9368 33.3061 33.8566 33.1099C33.7765 32.9138 33.7565 32.6982 33.7993 32.4907C33.8421 32.2832 33.9457 32.0931 34.0969 31.9446L43.6554 22.5551Z" fill="#B3F151"/>
</svg>
