<svg xmlns="http://www.w3.org/2000/svg" width="29" height="28" viewBox="0 0 29 28">
    <defs>
        <style>
            .cls-1,.cls-3{fill:#51a94d}.cls-1{stroke:#666}.cls-2{clip-path:url(#clip-path)}
        </style>
        <clipPath id="clip-path">
            <path id="Rectangle_577" d="M0 0h29v28H0z" class="cls-1" data-name="Rectangle 577" transform="translate(0 -7.242)"/>
        </clipPath>
    </defs>
    <g id="Mask_Group_51" class="cls-2" data-name="Mask Group 51" transform="translate(0 7.242)">
        <g id="whatsapp_2_" data-name="whatsapp (2)" transform="translate(.01 -7.286)">
            <path id="Path_24326" d="M24.083 4.108A14.137 14.137 0 0 0 4.16 4.1 13.877 13.877 0 0 0 0 14.012v.007a13.948 13.948 0 0 0 1.721 6.62L.039 28.286l7.735-1.759a14.158 14.158 0 0 0 6.35 1.509h.006a14.092 14.092 0 0 0 9.969-4.1 13.868 13.868 0 0 0-.015-19.823zm-9.954 21.72a11.933 11.933 0 0 1-5.677-1.438l-.366-.2-5.144 1.17 1.118-5.076-.215-.371a11.8 11.8 0 0 1-1.637-5.9 11.918 11.918 0 0 1 20.317-8.341 11.736 11.736 0 0 1 3.526 8.351 11.881 11.881 0 0 1-11.922 11.805zm0 0" class="cls-3" data-name="Path 24326"/>
            <path id="Path_24327" d="M12.919 10.529H12.3a1.189 1.189 0 0 0-.862.4 3.607 3.607 0 0 0-1.131 2.687 6.256 6.256 0 0 0 1.32 3.331c.162.215 2.236 3.571 5.521 4.862 2.73 1.073 3.286.86 3.878.806a3.264 3.264 0 0 0 2.182-1.531 2.685 2.685 0 0 0 .189-1.532c-.081-.134-.3-.215-.62-.376s-1.907-.954-2.2-1.061-.512-.161-.727.162-.85 1.067-1.039 1.282-.377.242-.7.081a8.936 8.936 0 0 1-2.588-1.6 9.9 9.9 0 0 1-1.823-2.268c-.188-.322-.02-.5.142-.657.145-.144.341-.341.5-.529a2.178 2.178 0 0 0 .315-.537.591.591 0 0 0-.027-.564c-.081-.161-.7-1.754-.989-2.391-.242-.536-.5-.555-.727-.564zm0 0" class="cls-3" data-name="Path 24327" transform="translate(-2.635 -2.691)"/>
        </g>
    </g>
</svg>
