<svg xmlns="http://www.w3.org/2000/svg" xmlns:xlink="http://www.w3.org/1999/xlink" width="224.313" height="84.897" viewBox="0 0 224.313 84.897">
  <defs>
    <style>
      .cls-1 {
        fill: #bcbcbc;
      }

      .cls-2 {
        fill: #fff;
      }

      .cls-3 {
        filter: url(#Path_3792);
      }
    </style>
    <filter id="Path_3792" x="0" y="0" width="224.313" height="84.897" filterUnits="userSpaceOnUse">
      <feOffset dy="3" input="SourceAlpha"/>
      <feGaussianBlur stdDeviation="3" result="blur"/>
      <feFlood flood-opacity="0.161"/>
      <feComposite operator="in" in2="blur"/>
      <feComposite in="SourceGraphic"/>
    </filter>
  </defs>
  <g id="Download_on_the_App_Store_Badge_US-UK_RGB_blk_092917" transform="translate(7.45 4.447)">
    <g id="Group_538" data-name="Group 538">
      <g id="Group_536" data-name="Group 536">
        <path id="Path_3791" data-name="Path 3791" class="cls-1" d="M192.736,0H16.686c-.642,0-1.276,0-1.916,0-.536,0-1.067.014-1.608.022A23.126,23.126,0,0,0,9.655.335a11.664,11.664,0,0,0-3.327,1.1A11.266,11.266,0,0,0,3.5,3.495,10.952,10.952,0,0,0,1.434,6.332,11.552,11.552,0,0,0,.34,9.663a22.738,22.738,0,0,0-.314,3.5C.01,13.7.009,14.241,0,14.778v40.45c.009.543.01,1.07.027,1.613a22.736,22.736,0,0,0,.314,3.5,11.528,11.528,0,0,0,1.094,3.333A10.864,10.864,0,0,0,3.5,66.5a10.98,10.98,0,0,0,2.833,2.063,11.726,11.726,0,0,0,3.327,1.1,23.545,23.545,0,0,0,3.507.309c.541.012,1.072.019,1.608.019.64,0,1.274,0,1.916,0h176.05c.629,0,1.268,0,1.9,0,.533,0,1.08-.007,1.613-.019a23.237,23.237,0,0,0,3.5-.309,11.907,11.907,0,0,0,3.339-1.1,10.986,10.986,0,0,0,2.83-2.063,11.192,11.192,0,0,0,2.068-2.825,11.557,11.557,0,0,0,1.083-3.333,23.638,23.638,0,0,0,.325-3.5c.007-.544.007-1.07.007-1.613.014-.636.014-1.268.014-1.914V16.688c0-.641,0-1.277-.014-1.911,0-.537,0-1.075-.007-1.612a23.636,23.636,0,0,0-.325-3.5,11.581,11.581,0,0,0-1.083-3.331,11.316,11.316,0,0,0-4.9-4.9,11.843,11.843,0,0,0-3.339-1.1,22.826,22.826,0,0,0-3.5-.309c-.533-.009-1.08-.019-1.613-.022-.629,0-1.268,0-1.9,0Z" transform="translate(0 0)"/>
        <g class="cls-3" transform="matrix(1, 0, 0, 1, -7.45, -4.45)">
          <path id="Path_3792-2" data-name="Path 3792" d="M14.121,67.769c-.533,0-1.053-.007-1.582-.019a22.208,22.208,0,0,1-3.27-.285,10.3,10.3,0,0,1-2.9-.958,9.458,9.458,0,0,1-2.444-1.778A9.305,9.305,0,0,1,2.14,62.286a10,10,0,0,1-.95-2.9A21.7,21.7,0,0,1,.9,56.109c-.011-.369-.026-1.6-.026-1.6v-40.4S.888,12.9.9,12.548a21.625,21.625,0,0,1,.29-3.274,10.062,10.062,0,0,1,.951-2.907A9.4,9.4,0,0,1,3.915,3.923,9.737,9.737,0,0,1,6.369,2.135a10.191,10.191,0,0,1,2.893-.951A22.03,22.03,0,0,1,12.543.9L14.122.875H193.928l1.6.022a21.678,21.678,0,0,1,3.252.284,10.393,10.393,0,0,1,2.923.958,9.785,9.785,0,0,1,4.225,4.232,10.075,10.075,0,0,1,.936,2.884,22.718,22.718,0,0,1,.3,3.3c.005.5.005,1.027.005,1.557.014.656.014,1.28.014,1.909v36.6c0,.635,0,1.255-.014,1.88,0,.569,0,1.09-.007,1.626a22.263,22.263,0,0,1-.3,3.241,10.034,10.034,0,0,1-.945,2.921,9.585,9.585,0,0,1-1.777,2.423A9.471,9.471,0,0,1,201.7,66.5a10.259,10.259,0,0,1-2.918.962,21.954,21.954,0,0,1-3.27.285c-.512.012-1.049.019-1.57.019l-1.9,0Z" transform="translate(8.13 5.12)"/>
        </g>
      </g>
      <g id="_Group_" data-name="&lt;Group&gt;" transform="translate(17.699 14.907)">
        <g id="_Group_2" data-name="&lt;Group&gt;">
          <g id="_Group_3" data-name="&lt;Group&gt;">
            <path id="_Path_" data-name="&lt;Path&gt;" class="cls-2" d="M36.236,25.2a8.784,8.784,0,0,1,4.183-7.37A8.991,8.991,0,0,0,33.334,14c-2.981-.313-5.87,1.783-7.389,1.783-1.548,0-3.887-1.752-6.4-1.7A9.434,9.434,0,0,0,11.6,18.929c-3.433,5.943-.872,14.678,2.416,19.482,1.645,2.352,3.568,4.98,6.084,4.887,2.462-.1,3.381-1.57,6.353-1.57,2.944,0,3.807,1.57,6.374,1.511,2.642-.043,4.306-2.363,5.894-4.738a19.457,19.457,0,0,0,2.7-5.489A8.488,8.488,0,0,1,36.236,25.2Z" transform="translate(-9.972 -4.65)"/>
            <path id="_Path_2" data-name="&lt;Path&gt;" class="cls-2" d="M24.553,14.916a8.648,8.648,0,0,0,1.978-6.2,8.8,8.8,0,0,0-5.693,2.946,8.229,8.229,0,0,0-2.03,5.966,7.275,7.275,0,0,0,5.745-2.716Z" transform="translate(-3.137 -8.72)"/>
          </g>
        </g>
        <g id="Group_537" data-name="Group 537" transform="translate(40.424 16.242)">
          <path id="Path_3793" data-name="Path 3793" class="cls-2" d="M48.4,34.162H40l-2.018,5.957H34.427l7.958-22.041h3.7L54.04,40.119H50.421Zm-7.531-2.749h6.659L44.25,21.744h-.092Z" transform="translate(-34.427 -17.71)"/>
          <path id="Path_3794" data-name="Path 3794" class="cls-2" d="M61.768,29.553c0,4.994-2.673,8.2-6.706,8.2a5.448,5.448,0,0,1-5.056-2.811H49.93V42.9h-3.3V21.517h3.193V24.19h.061A5.7,5.7,0,0,1,55,21.349C59.08,21.349,61.768,24.573,61.768,29.553Zm-3.39,0c0-3.253-1.681-5.392-4.247-5.392-2.52,0-4.215,2.184-4.215,5.392,0,3.238,1.7,5.406,4.215,5.406,2.565,0,4.247-2.123,4.247-5.406Z" transform="translate(-24.97 -15.178)"/>
          <path id="Path_3795" data-name="Path 3795" class="cls-2" d="M71.733,29.553c0,4.994-2.673,8.2-6.706,8.2a5.448,5.448,0,0,1-5.056-2.811h-.076V42.9H56.6V21.517h3.193V24.19h.061a5.7,5.7,0,0,1,5.117-2.841C69.045,21.349,71.733,24.573,71.733,29.553Zm-3.39,0c0-3.253-1.681-5.392-4.247-5.392-2.52,0-4.215,2.184-4.215,5.392,0,3.238,1.7,5.406,4.215,5.406,2.565,0,4.247-2.123,4.247-5.406Z" transform="translate(-17.248 -15.178)"/>
          <path id="Path_3796" data-name="Path 3796" class="cls-2" d="M73.185,34.138c.244,2.186,2.368,3.621,5.269,3.621,2.78,0,4.78-1.435,4.78-3.406,0-1.711-1.206-2.735-4.063-3.437l-2.856-.688c-4.047-.978-5.926-2.87-5.926-5.942,0-3.8,3.314-6.415,8.02-6.415,4.657,0,7.85,2.612,7.958,6.415h-3.33c-.2-2.2-2.018-3.527-4.675-3.527s-4.475,1.343-4.475,3.3c0,1.558,1.161,2.475,4,3.177l2.428.6c4.522,1.069,6.4,2.886,6.4,6.11,0,4.124-3.285,6.706-8.509,6.706-4.888,0-8.188-2.522-8.4-6.509Z" transform="translate(-7.01 -17.871)"/>
          <path id="Path_3797" data-name="Path 3797" class="cls-2" d="M85.813,19.3v3.8h3.056v2.612H85.813v8.859c0,1.376.612,2.018,1.955,2.018a10.307,10.307,0,0,0,1.085-.076v2.6a9.058,9.058,0,0,1-1.832.153c-3.253,0-4.522-1.222-4.522-4.339V25.715H80.163V23.1H82.5V19.3Z" transform="translate(1.014 -16.764)"/>
          <path id="Path_3798" data-name="Path 3798" class="cls-2" d="M86.065,29.564c0-5.056,2.978-8.233,7.621-8.233,4.659,0,7.623,3.177,7.623,8.233S98.361,37.8,93.686,37.8,86.065,34.634,86.065,29.564Zm11.884,0c0-3.468-1.589-5.515-4.262-5.515s-4.261,2.063-4.261,5.515c0,3.482,1.588,5.514,4.261,5.514s4.262-2.031,4.262-5.514Z" transform="translate(5.588 -15.19)"/>
          <path id="Path_3799" data-name="Path 3799" class="cls-2" d="M96.186,21.517h3.146v2.735h.076a3.833,3.833,0,0,1,3.865-2.9,5.087,5.087,0,0,1,1.13.123v3.085a4.611,4.611,0,0,0-1.482-.2,3.324,3.324,0,0,0-3.437,3.7v9.532h-3.3Z" transform="translate(13.431 -15.178)"/>
          <path id="Path_3800" data-name="Path 3800" class="cls-2" d="M115.713,32.878c-.444,2.917-3.285,4.919-6.919,4.919-4.675,0-7.576-3.132-7.576-8.157,0-5.04,2.917-8.31,7.438-8.31,4.446,0,7.242,3.054,7.242,7.926v1.13h-11.35v.2a4.185,4.185,0,0,0,4.323,4.552,3.636,3.636,0,0,0,3.711-2.26Zm-11.15-4.8H112.6A3.865,3.865,0,0,0,108.655,24a4.068,4.068,0,0,0-4.092,4.079Z" transform="translate(17.329 -15.19)"/>
        </g>
      </g>
    </g>
    <g id="_Group_4" data-name="&lt;Group&gt;" transform="translate(59.383 18.453)">
      <g id="Group_539" data-name="Group 539">
        <path id="Path_3801" data-name="Path 3801" class="cls-2" d="M39.259,8.736a4.394,4.394,0,0,1,4.674,4.936c0,3.173-1.715,5-4.674,5H35.671V8.736Zm-2.045,8.528h1.873a3.123,3.123,0,0,0,3.276-3.573,3.131,3.131,0,0,0-3.276-3.552H37.214Z" transform="translate(-35.671 -8.246)"/>
        <path id="Path_3802" data-name="Path 3802" class="cls-2" d="M41.687,14a3.551,3.551,0,1,1,7.07,0,3.552,3.552,0,1,1-7.07,0Zm5.549,0c0-1.625-.73-2.575-2.011-2.575s-2.009.95-2.009,2.575.723,2.581,2.009,2.581S47.236,15.629,47.236,14Z" transform="translate(-31.683 -7.326)"/>
        <path id="Path_3803" data-name="Path 3803" class="cls-2" d="M54.9,17.691H53.365L51.816,12.17H51.7l-1.543,5.521h-1.52l-2.066-7.5h1.5l1.343,5.72h.111l1.541-5.72h1.419l1.541,5.72h.117l1.336-5.72h1.479Z" transform="translate(-28.426 -7.268)"/>
        <path id="Path_3804" data-name="Path 3804" class="cls-2" d="M53.853,10.256h1.424v1.191h.111a2.244,2.244,0,0,1,2.237-1.336A2.438,2.438,0,0,1,60.22,12.9v4.853H58.74V13.271c0-1.2-.523-1.8-1.618-1.8a1.72,1.72,0,0,0-1.79,1.9v4.385H53.854Z" transform="translate(-23.584 -7.329)"/>
        <path id="Path_3805" data-name="Path 3805" class="cls-2" d="M59.094,8.437h1.479V18.859H59.094Z" transform="translate(-20.101 -8.437)"/>
        <path id="Path_3806" data-name="Path 3806" class="cls-2" d="M61.224,14A3.552,3.552,0,1,1,68.3,14a3.552,3.552,0,1,1-7.071,0Zm5.549,0c0-1.625-.73-2.575-2.011-2.575s-2.009.95-2.009,2.575.723,2.581,2.009,2.581S66.773,15.629,66.773,14Z" transform="translate(-18.696 -7.326)"/>
        <path id="Path_3807" data-name="Path 3807" class="cls-2" d="M66.4,15.629c0-1.349,1-2.127,2.788-2.238l2.031-.117v-.647c0-.792-.523-1.239-1.535-1.239-.826,0-1.4.3-1.562.833H66.69c.151-1.288,1.362-2.113,3.063-2.113,1.879,0,2.939.936,2.939,2.519v5.122H71.268V16.7h-.117A2.522,2.522,0,0,1,68.9,17.872a2.264,2.264,0,0,1-2.5-2.243Zm4.819-.641v-.627l-1.831.117c-1.032.069-1.5.42-1.5,1.081s.585,1.067,1.39,1.067a1.767,1.767,0,0,0,1.941-1.639Z" transform="translate(-15.244 -7.326)"/>
        <path id="Path_3808" data-name="Path 3808" class="cls-2" d="M71.348,15.108c0-2.369,1.218-3.869,3.112-3.869a2.47,2.47,0,0,1,2.3,1.315h.111V8.437h1.479V18.859H76.931V17.675h-.117a2.6,2.6,0,0,1-2.354,1.308C72.553,18.983,71.348,17.483,71.348,15.108Zm1.528,0c0,1.59.749,2.547,2,2.547s2.018-.971,2.018-2.54-.779-2.547-2.018-2.547-2,.963-2,2.54Z" transform="translate(-11.955 -8.437)"/>
        <path id="Path_3809" data-name="Path 3809" class="cls-2" d="M79.237,14a3.551,3.551,0,1,1,7.07,0,3.552,3.552,0,1,1-7.07,0Zm5.549,0c0-1.625-.73-2.575-2.011-2.575s-2.009.95-2.009,2.575.723,2.581,2.009,2.581S84.785,15.629,84.785,14Z" transform="translate(-6.722 -7.326)"/>
        <path id="Path_3810" data-name="Path 3810" class="cls-2" d="M84.669,10.256h1.424v1.191H86.2a2.244,2.244,0,0,1,2.237-1.336A2.438,2.438,0,0,1,91.036,12.9v4.853H89.556V13.271c0-1.2-.523-1.8-1.618-1.8a1.72,1.72,0,0,0-1.79,1.9v4.385H84.669Z" transform="translate(-3.1 -7.329)"/>
        <path id="Path_3811" data-name="Path 3811" class="cls-2" d="M94.582,9.074v1.9h1.624V12.22H94.582v3.855c0,.785.324,1.129,1.06,1.129a4.939,4.939,0,0,0,.564-.034V18.4a4.853,4.853,0,0,1-.8.076c-1.645,0-2.3-.579-2.3-2.024V12.22h-1.19V10.974H93.1v-1.9Z" transform="translate(1.714 -8.014)"/>
        <path id="Path_3812" data-name="Path 3812" class="cls-2" d="M95.7,8.437h1.466v4.131h.117a2.307,2.307,0,0,1,2.286-1.343,2.469,2.469,0,0,1,2.582,2.795v4.84h-1.481V14.385c0-1.2-.558-1.8-1.6-1.8a1.751,1.751,0,0,0-1.887,1.9v4.378H95.7Z" transform="translate(4.236 -8.437)"/>
        <path id="Path_3813" data-name="Path 3813" class="cls-2" d="M107.453,15.725a3.043,3.043,0,0,1-3.248,2.169,3.4,3.4,0,0,1-3.462-3.869,3.457,3.457,0,0,1,3.456-3.916c2.086,0,3.344,1.425,3.344,3.779V14.4H102.25v.083a1.981,1.981,0,0,0,2,2.148,1.8,1.8,0,0,0,1.783-.909Zm-5.2-2.416h3.786a1.809,1.809,0,0,0-1.845-1.942,1.917,1.917,0,0,0-1.941,1.942Z" transform="translate(7.563 -7.326)"/>
      </g>
    </g>
  </g>
</svg>
