<svg xmlns="http://www.w3.org/2000/svg" width="25.346" height="16.294" viewBox="0 0 25.346 16.294">
    <defs>
        <style>
            .cls-1{fill:#fff}
        </style>
    </defs>
    <g id="eye-open">
        <path id="Path_24438" d="M25.063 98.536a15.106 15.106 0 0 0-5.325-5.2 13.676 13.676 0 0 0-14.13 0 15.1 15.1 0 0 0-5.325 5.2 1.826 1.826 0 0 0 0 1.952 15.1 15.1 0 0 0 5.325 5.2 13.7 13.7 0 0 0 14.13.007 15.006 15.006 0 0 0 5.325-5.212 1.825 1.825 0 0 0 0-1.952zM9.639 94.668a4.139 4.139 0 0 1 3.034-1.268.679.679 0 1 1 0 1.358A2.946 2.946 0 0 0 9.731 97.7a.679.679 0 1 1-1.358 0 4.139 4.139 0 0 1 1.266-3.032zm9.18 9.463a11.848 11.848 0 0 1-12.291 0 14.6 14.6 0 0 1-4.717-4.618A13.9 13.9 0 0 1 7.2 94.519a6.181 6.181 0 0 0-.863 3.181 6.1 6.1 0 0 0 1.86 4.477 6.1 6.1 0 0 0 4.477 1.86 6.1 6.1 0 0 0 4.477-1.86A6.1 6.1 0 0 0 19.01 97.7a6.18 6.18 0 0 0-.863-3.182 13.9 13.9 0 0 1 5.389 4.993 14.6 14.6 0 0 1-4.717 4.619z" class="cls-1" data-name="Path 24438" transform="translate(0 -91.365)"/>
    </g>
</svg>
