<svg xmlns="http://www.w3.org/2000/svg" width="35" height="35" viewBox="0 0 35 35">
    <defs>
        <style>
            .cls-1{fill:#fff;stroke:#666}.cls-2{clip-path:url(#clip-path)}
        </style>
        <clipPath id="clip-path">
            <path id="Rectangle_87" d="M0 0h35v35H0z" class="cls-1" data-name="Rectangle 87" transform="translate(151 1072)"/>
        </clipPath>
    </defs>
    <g id="Mask_Group_9" class="cls-2" data-name="Mask Group 9" transform="translate(-151 -1072)">
        <g id="clipboard" transform="translate(151 1072)">
            <g id="Group_30167" data-name="Group 30167">
                <g id="Group_30166" data-name="Group 30166">
                    <path id="Path_24136" d="M29.371 6.425h-5.936a1.493 1.493 0 0 0-1.346-1.04h-.734v-1.53a3.855 3.855 0 1 0-7.71 0v1.591h-.734a1.493 1.493 0 0 0-1.346 1.04H5.629a1.645 1.645 0 0 0-1.652 1.652v25.21A1.645 1.645 0 0 0 5.629 35h23.742a1.645 1.645 0 0 0 1.652-1.652V8.077a1.645 1.645 0 0 0-1.652-1.652zm-16.7.8a.7.7 0 0 1 .245-.612h1.346A.578.578 0 0 0 14.869 6V3.855a2.631 2.631 0 0 1 5.262 0v2.2a.578.578 0 0 0 .612.612h1.346c.061 0 .245.184.245.612V9.3a.7.7 0 0 1-.245.612h-9.178c-.061 0-.245-.184-.245-.612V7.22zm.245 3.916h9.117a1.5 1.5 0 0 0 1.402-1.351h3.733c.061 0 .061 0 .061.061v21.661c0 .061 0 .061-.061.061H7.771a.06.06 0 0 1-.061-.061V9.851c0-.061 0-.061.061-.061H11.5a1.55 1.55 0 0 0 1.411 1.346zM29.8 33.287a.418.418 0 0 1-.428.428H5.629a.418.418 0 0 1-.428-.428V8.077a.418.418 0 0 1 .428-.428h5.813v.918H7.771a1.255 1.255 0 0 0-1.285 1.284v21.661A1.255 1.255 0 0 0 7.771 32.8h19.458a1.255 1.255 0 0 0 1.285-1.285V9.851a1.255 1.255 0 0 0-1.285-1.285h-3.671v-.917h5.813a.418.418 0 0 1 .428.428z" data-name="Path 24136"/>
                </g>
            </g>
            <g id="Group_30169" data-name="Group 30169">
                <g id="Group_30168" data-name="Group 30168">
                    <path id="Path_24137" d="M17.5 2.325a1.906 1.906 0 0 0-1.9 1.9 1.96 1.96 0 0 0 1.9 1.955 1.906 1.906 0 0 0 1.9-1.9 1.96 1.96 0 0 0-1.9-1.955zm0 2.57a.673.673 0 1 1 .673-.673.679.679 0 0 1-.673.678z" data-name="Path 24137"/>
                </g>
            </g>
        </g>
    </g>
</svg>
