<svg xmlns="http://www.w3.org/2000/svg" width="35" height="35" viewBox="0 0 35 35">
    <defs>
        <style>
            .cls-1{fill:#fff;stroke:#666}.cls-2{clip-path:url(#clip-path)}
        </style>
        <clipPath id="clip-path">
            <path id="Rectangle_88" d="M0 0h35v35H0z" class="cls-1" data-name="Rectangle 88" transform="translate(151 1156)"/>
        </clipPath>
    </defs>
    <g id="Mask_Group_10" class="cls-2" data-name="Mask Group 10" transform="translate(-151 -1156)">
        <g id="book_1_" data-name="book (1)" transform="translate(151 1156)">
            <g id="Group_30171" data-name="Group 30171">
                <g id="Group_30170" data-name="Group 30170">
                    <path id="Path_24138" d="M8.969 26h21.5a.635.635 0 0 0 .672-.672V2.553A2.552 2.552 0 0 0 28.585 0H6.416a2.552 2.552 0 0 0-2.553 2.553v27.274A5.118 5.118 0 0 0 8.969 35h21.5a.672.672 0 0 0 0-1.344h-21.5a3.829 3.829 0 1 1 0-7.658zm-3.9.336V2.553h.071a1.2 1.2 0 0 1 1.209-1.209h22.169a1.2 1.2 0 0 1 1.209 1.209v22.1H8.9a5.215 5.215 0 0 0-3.827 1.681z" data-name="Path 24138"/>
                </g>
            </g>
            <g id="Group_30173" data-name="Group 30173">
                <g id="Group_30172" data-name="Group 30172">
                    <path id="Path_24139" d="M30.4 30.566H7.894a.672.672 0 0 0 0 1.344H30.4a.672.672 0 0 0 0-1.344z" data-name="Path 24139"/>
                </g>
            </g>
            <g id="Group_30175" data-name="Group 30175">
                <g id="Group_30174" data-name="Group 30174">
                    <path id="Path_24140" d="M30.4 27.61H7.894a.672.672 0 1 0 0 1.344H30.4a.672.672 0 1 0 0-1.344z" data-name="Path 24140"/>
                </g>
            </g>
            <g id="Group_30177" data-name="Group 30177">
                <g id="Group_30176" data-name="Group 30176">
                    <path id="Path_24141" d="M23.614 6.113H11.387A1.491 1.491 0 0 0 9.91 7.591V12.9a1.491 1.491 0 0 0 1.478 1.478h12.226a1.491 1.491 0 0 0 1.478-1.478V7.591a1.491 1.491 0 0 0-1.478-1.478zm.134 6.785a.144.144 0 0 1-.134.134H11.387a.144.144 0 0 1-.134-.134V7.591a.144.144 0 0 1 .134-.134h12.227a.144.144 0 0 1 .134.134z" data-name="Path 24141"/>
                </g>
            </g>
        </g>
    </g>
</svg>
