<svg xmlns="http://www.w3.org/2000/svg" width="48" height="53" viewBox="0 0 48 53">
    <defs>
        <style>
            .cls-1{fill:#fff;stroke:#666}.cls-2{opacity:.1;clip-path:url(#clip-path)}
        </style>
        <clipPath id="clip-path">
            <path id="Rectangle_68" d="M0 0h48v53H0z" class="cls-1" data-name="Rectangle 68" transform="translate(0 -.76)"/>
        </clipPath>
    </defs>
    <g id="Mask_Group_6" class="cls-2" data-name="Mask Group 6" transform="translate(0 .76)">
        <g id="inverted-commas" transform="translate(0 7.078)">
            <path id="Path_14" d="M20.971 24.255H9.4c.2 9.185 2.591 10.228 5.6 10.525l1.159.156v10.1l-1.336-.078c-3.925-.24-8.263-1.011-11.158-4.9C1.119 36.647 0 31.075 0 22.522V6.672h20.971z" data-name="Path 14" transform="translate(26.757 -6.672)"/>
            <path id="Path_15" d="M49.562 6.672v17.583H38.141c.2 9.185 2.513 10.228 5.519 10.525l1.082.156v10.1l-1.259-.078c-3.925-.24-8.3-1.011-11.2-4.9-2.537-3.411-3.695-8.982-3.695-17.536V6.672z" data-name="Path 15" transform="translate(-28.591 -6.672)"/>
        </g>
    </g>
</svg>
